<?xml version="1.0" encoding="UTF-8" standalone="no"?>
<svg
   xmlns:dc="http://purl.org/dc/elements/1.1/"
   xmlns:cc="http://creativecommons.org/ns#"
   xmlns:rdf="http://www.w3.org/1999/02/22-rdf-syntax-ns#"
   xmlns:svg="http://www.w3.org/2000/svg"
   xmlns="http://www.w3.org/2000/svg"
   xmlns:sodipodi="http://sodipodi.sourceforge.net/DTD/sodipodi-0.dtd"
   xmlns:inkscape="http://www.inkscape.org/namespaces/inkscape"
   version="1.1"
   id="Ebene_1"
   x="0px"
   y="0px"
   viewBox="0 0 160.4 89.2"
   style="enable-background:new 0 0 160.4 89.2;"
   xml:space="preserve"
   sodipodi:docname="logo.svg"
   inkscape:version="1.0.2 (e86c870879, 2021-01-15)"><metadata
   id="metadata177"><rdf:RDF><cc:Work
       rdf:about=""><dc:format>image/svg+xml</dc:format><dc:type
         rdf:resource="http://purl.org/dc/dcmitype/StillImage" /><dc:title></dc:title></cc:Work></rdf:RDF></metadata><defs
   id="defs175">
		
		
		
		
		
	
	
	

	
	
	
	
	

	
	
	
	
	

	
	

	
	
	
	
	

		
		
		
		
		
	
		
		
		
		
	
		
			
	
		
	
		
			
	
		
	
		
			
	
	
	

		
		
		
		
		
	
		
		
		
		
	
		
	</defs><sodipodi:namedview
   pagecolor="#ffffff"
   bordercolor="#666666"
   borderopacity="1"
   objecttolerance="10"
   gridtolerance="10"
   guidetolerance="10"
   inkscape:pageopacity="0"
   inkscape:pageshadow="2"
   inkscape:window-width="1846"
   inkscape:window-height="1064"
   id="namedview173"
   showgrid="false"
   inkscape:pagecheckerboard="true"
   inkscape:zoom="4.9782856"
   inkscape:cx="83.840497"
   inkscape:cy="35.341623"
   inkscape:window-x="2469"
   inkscape:window-y="52"
   inkscape:window-maximized="0"
   inkscape:current-layer="Ebene_1" />
<style
   type="text/css"
   id="style2">
	.st0{fill:#004481;}
	.st1{fill:#EB690B;}
	.st2{fill:#4B4B4D;}
</style>
<g
   id="g6"
   style="fill:#ffffff;fill-opacity:1"
   inkscape:export-xdpi="134.4538"
   inkscape:export-ydpi="134.4538">
		
			<rect
   x="23.1"
   y="57.5"
   transform="matrix(0.308,-0.9514,0.9514,0.308,-34.9265,67.3876)"
   class="st0"
   width="11.5"
   height="0.40000001"
   id="rect4"
   style="fill:#ffffff;fill-opacity:1" />
	</g><polygon
   class="st0"
   points="38.7,47 38.8,46.8 42.1,38.4 41.7,38.2 38.3,46.6 38.6,46.5 27.4,42.4 27,42.2 27.1,42.7 30.4,52.3 30.8,52.2 27.5,42.5 27.3,42.8 38.5,46.9 "
   id="polygon8"
   style="fill:#ffffff;fill-opacity:1"
   inkscape:export-xdpi="134.4538"
   inkscape:export-ydpi="134.4538" /><g
   id="g14"
   style="fill:#ffffff;fill-opacity:1"
   inkscape:export-xdpi="134.4538"
   inkscape:export-ydpi="134.4538">
		
			<rect
   x="40.200001"
   y="46.200001"
   transform="matrix(0.8978,-0.4403,0.4403,0.8978,-18.0861,22.9421)"
   class="st0"
   width="0.40000001"
   height="8.3999996"
   id="rect12"
   style="fill:#ffffff;fill-opacity:1" />
	</g><g
   id="g18"
   style="fill:#ffffff;fill-opacity:1"
   inkscape:export-xdpi="134.4538"
   inkscape:export-ydpi="134.4538">
		<polygon
   class="st0"
   points="27.5,42.7 27.5,42.7 32.6,31.7 32.2,31.5 27.1,42.5 27.2,42.4 17,48.8 17.2,49.1 27.5,42.8 "
   id="polygon16"
   style="fill:#ffffff;fill-opacity:1" />
	</g><g
   id="g22"
   style="fill:#ffffff;fill-opacity:1"
   inkscape:export-xdpi="134.4538"
   inkscape:export-ydpi="134.4538">
		
			<rect
   x="21.799999"
   y="34.599998"
   transform="matrix(0.3818,-0.9243,0.9243,0.3818,-23.7387,45.2739)"
   class="st0"
   width="0.40000001"
   height="11.6"
   id="rect20"
   style="fill:#ffffff;fill-opacity:1" />
	</g>
<circle
   class="st0"
   cx="27.1"
   cy="63.200001"
   r="1.4"
   id="circle26"
   style="fill:#ffffff;fill-opacity:1"
   inkscape:export-xdpi="134.4538"
   inkscape:export-ydpi="134.4538" /><circle
   class="st0"
   cx="41.900002"
   cy="38.299999"
   r="3.0999999"
   id="circle28"
   style="fill:#ffffff;fill-opacity:1"
   inkscape:export-xdpi="134.4538"
   inkscape:export-ydpi="134.4538" /><circle
   class="st0"
   cx="42.200001"
   cy="54.200001"
   r="1.3"
   id="circle30"
   style="fill:#ffffff;fill-opacity:1"
   inkscape:export-xdpi="134.4538"
   inkscape:export-ydpi="134.4538" /><circle
   class="st0"
   cx="17.1"
   cy="48.900002"
   r="1.9"
   id="circle32"
   style="fill:#ffffff;fill-opacity:1"
   inkscape:export-xdpi="134.4538"
   inkscape:export-ydpi="134.4538" /><circle
   class="st0"
   cx="16.6"
   cy="38.200001"
   r="2.4000001"
   id="circle34"
   style="fill:#ffffff;fill-opacity:1"
   inkscape:export-xdpi="134.4538"
   inkscape:export-ydpi="134.4538" /><rect
   x="29.799999"
   y="28.9"
   class="st1"
   width="5.1999998"
   height="5.1999998"
   id="rect38"
   inkscape:export-xdpi="134.4538"
   inkscape:export-ydpi="134.4538" /><rect
   x="37.299999"
   y="45.400002"
   class="st1"
   width="2.5"
   height="2.5"
   id="rect40"
   inkscape:export-xdpi="134.4538"
   inkscape:export-ydpi="134.4538" /><rect
   x="28.200001"
   y="49.799999"
   class="st1"
   width="4.8000002"
   height="4.8000002"
   id="rect42"
   inkscape:export-xdpi="134.4538"
   inkscape:export-ydpi="134.4538" /><rect
   x="25.700001"
   y="41"
   class="st1"
   width="3.3"
   height="3.3"
   id="rect44"
   inkscape:export-xdpi="134.4538"
   inkscape:export-ydpi="134.4538" />




<g
   id="g170"
   transform="translate(0,10.224474)"
   style="fill:#ffffff;fill-opacity:1"
   inkscape:export-xdpi="134.4538"
   inkscape:export-ydpi="134.4538">
	<g
   id="g164"
   style="fill:#ffffff;fill-opacity:1">
		<g
   id="g162"
   style="fill:#ffffff;fill-opacity:1">
			<path
   class="st2"
   d="m 58.7,41.5 c -0.3,0.5 -0.7,0.9 -1.2,1.1 -0.5,0.3 -1.1,0.4 -1.7,0.5 -0.6,0.1 -1.2,0.1 -1.7,0.1 h -3.9 v -12 h 4.1 c 0.6,0 1.2,0.1 1.7,0.2 0.5,0.1 1,0.3 1.3,0.5 0.4,0.2 0.7,0.5 0.9,0.9 0.2,0.4 0.3,0.8 0.3,1.3 0,0.6 -0.1,1.1 -0.4,1.5 -0.3,0.4 -0.7,0.8 -1.3,1 0.7,0.2 1.3,0.5 1.7,1 0.4,0.5 0.7,1.1 0.7,1.8 0,1 -0.2,1.7 -0.5,2.1 z M 55.4,33.4 C 55,33.2 54.5,33.1 53.9,33.1 h -1.1 v 3 h 1.1 c 0.7,0 1.2,-0.1 1.6,-0.4 C 55.9,35.4 56,35 56,34.5 56,34 55.8,33.7 55.4,33.4 Z m 0.6,5 c -0.4,-0.3 -1,-0.5 -1.7,-0.5 h -1.5 v 3.5 h 1.5 c 0.8,0 1.3,-0.2 1.7,-0.5 0.4,-0.3 0.6,-0.7 0.6,-1.3 0,-0.5 -0.2,-0.9 -0.6,-1.2 z"
   id="path142"
   style="fill:#ffffff;fill-opacity:1" />
			<path
   class="st2"
   d="m 68.8,41.5 c -0.3,0.5 -0.7,0.9 -1.2,1.1 -0.5,0.3 -1.1,0.4 -1.7,0.5 -0.6,0.1 -1.2,0.1 -1.7,0.1 h -3.9 v -12 h 4.1 c 0.6,0 1.2,0.1 1.7,0.2 0.5,0.1 1,0.3 1.3,0.5 0.4,0.2 0.7,0.5 0.9,0.9 0.2,0.4 0.3,0.8 0.3,1.3 0,0.6 -0.1,1.1 -0.4,1.5 -0.3,0.4 -0.7,0.8 -1.3,1 0.7,0.2 1.3,0.5 1.7,1 0.4,0.5 0.7,1.1 0.7,1.8 0,1 -0.2,1.7 -0.5,2.1 z M 65.5,33.4 C 65.1,33.2 64.6,33.1 64,33.1 h -1.1 v 3 H 64 c 0.7,0 1.2,-0.1 1.6,-0.4 C 66,35.4 66.1,35 66.1,34.5 66,34 65.9,33.7 65.5,33.4 Z m 0.6,5 c -0.4,-0.3 -1,-0.5 -1.7,-0.5 h -1.5 v 3.5 h 1.5 c 0.8,0 1.3,-0.2 1.7,-0.5 0.4,-0.3 0.6,-0.7 0.6,-1.3 0,-0.5 -0.2,-0.9 -0.6,-1.2 z"
   id="path144"
   style="fill:#ffffff;fill-opacity:1" />
			<path
   class="st2"
   d="m 82.6,43.3 c 0,-1.6 -0.1,-3.2 -0.1,-4.8 0,-1.6 -0.2,-3.2 -0.2,-4.6 v 0 L 79,43.4 H 76.4 L 73,33.8 v 0 c -0.1,1.4 -0.1,3 -0.2,4.6 -0.1,1.6 -0.1,3.3 -0.1,4.9 h -2.3 c 0,-2 0.1,-4 0.2,-6 0.1,-2 0.3,-4 0.5,-6 h 3.6 l 3.1,9.1 v 0 l 3,-9.1 h 3.6 c 0.2,2 0.4,4.1 0.5,6.1 0.1,2 0.2,4 0.2,6 0,-0.1 -2.5,-0.1 -2.5,-0.1 z"
   id="path146"
   style="fill:#ffffff;fill-opacity:1" />
			<path
   class="st2"
   d="m 93.3,43.3 -3,-5 h -1.2 v 5 h -2.6 v -12 H 91 c 0.7,0 1.3,0.1 1.8,0.2 0.5,0.1 1,0.3 1.4,0.6 0.4,0.3 0.7,0.6 0.9,1 0.2,0.4 0.3,0.9 0.3,1.4 0,0.8 -0.2,1.5 -0.7,2.1 -0.5,0.6 -1.1,1 -2,1.2 l 3.5,5.5 z m -1.1,-9.7 c -0.3,-0.3 -0.8,-0.4 -1.5,-0.4 h -1.6 v 3.2 h 1.3 c 0.7,0 1.3,-0.2 1.7,-0.5 0.4,-0.3 0.6,-0.7 0.6,-1.3 0,-0.4 -0.1,-0.7 -0.5,-1 z"
   id="path148"
   style="fill:#ffffff;fill-opacity:1" />
			<path
   class="st2"
   d="m 97.2,43.3 v -12 h 2.6 v 12 z"
   id="path150"
   style="fill:#ffffff;fill-opacity:1" />
			<path
   class="st2"
   d="m 101.1,39.6 v -1.9 h 4.9 v 1.9 z"
   id="path152"
   style="fill:#ffffff;fill-opacity:1" />
			<path
   class="st2"
   d="m 107.2,43.3 v -12 h 7.6 v 1.9 h -5 v 3 h 4.3 V 38 h -4.3 v 3.4 h 5.1 v 1.9 z"
   id="path154"
   style="fill:#ffffff;fill-opacity:1" />
			<path
   class="st2"
   d="m 123.4,43.3 -3,-5 h -1.2 v 5 h -2.6 v -12 h 4.4 c 0.7,0 1.3,0.1 1.8,0.2 0.5,0.1 1,0.3 1.4,0.6 0.4,0.3 0.7,0.6 0.9,1 0.2,0.4 0.3,0.9 0.3,1.4 0,0.8 -0.2,1.5 -0.7,2.1 -0.5,0.6 -1.1,1 -2,1.2 l 3.5,5.5 z m -1.1,-9.7 c -0.3,-0.3 -0.8,-0.4 -1.5,-0.4 h -1.6 v 3.2 h 1.3 c 0.7,0 1.3,-0.2 1.7,-0.5 0.4,-0.3 0.6,-0.7 0.6,-1.3 0,-0.4 -0.1,-0.7 -0.5,-1 z"
   id="path156"
   style="fill:#ffffff;fill-opacity:1" />
			<path
   class="st2"
   d="m 127.3,43.3 v -12 h 2.6 v 12 z"
   id="path158"
   style="fill:#ffffff;fill-opacity:1" />
			<path
   class="st2"
   d="m 139.5,43.3 c -0.6,0.1 -1.2,0.2 -1.8,0.2 -2.1,0 -3.7,-0.5 -4.8,-1.6 -1.1,-1 -1.7,-2.5 -1.7,-4.5 0,-1 0.2,-1.9 0.5,-2.7 0.3,-0.8 0.8,-1.5 1.3,-2 0.6,-0.5 1.3,-1 2.1,-1.2 0.8,-0.3 1.7,-0.4 2.7,-0.4 0.6,0 1.1,0.1 1.7,0.2 0.6,0.1 1.1,0.3 1.6,0.5 l -0.6,1.9 c -0.4,-0.2 -0.9,-0.3 -1.3,-0.5 -0.5,-0.1 -0.9,-0.2 -1.4,-0.2 -0.6,0 -1.2,0.1 -1.7,0.3 -0.5,0.2 -0.9,0.5 -1.2,0.9 -0.3,0.4 -0.6,0.8 -0.7,1.4 -0.2,0.5 -0.2,1.1 -0.2,1.7 0,1.4 0.3,2.4 1,3.2 0.7,0.8 1.7,1.2 3,1.2 0.5,0 0.9,0 1.4,-0.1 0.5,-0.1 0.9,-0.2 1.4,-0.4 l 0.5,1.8 c -0.6,0.1 -1.2,0.2 -1.8,0.3 z"
   id="path160"
   style="fill:#ffffff;fill-opacity:1" />
		</g>
	</g>
	<g
   id="g168"
   style="fill:#ffffff;fill-opacity:1">
		<path
   class="st2"
   d="m 148.4,32.2 c 0,1.2 -1,2.2 -2.3,2.2 -1.3,0 -2.4,-0.9 -2.4,-2.2 0,-1.2 1,-2.1 2.4,-2.1 1.3,0 2.3,0.9 2.3,2.1 z m -4.1,0 c 0,0.9 0.8,1.7 1.8,1.7 1,0 1.7,-0.8 1.7,-1.7 0,-0.9 -0.7,-1.7 -1.8,-1.7 -1.1,0 -1.7,0.8 -1.7,1.7 z m 1.4,1.1 h -0.5 v -2.1 c 0.2,0 0.5,-0.1 0.9,-0.1 0.4,0 0.6,0.1 0.8,0.2 0.1,0.1 0.2,0.3 0.2,0.5 0,0.2 -0.2,0.4 -0.5,0.5 v 0 c 0.2,0.1 0.3,0.2 0.4,0.5 0.1,0.3 0.1,0.5 0.2,0.5 h -0.6 c -0.1,-0.1 -0.1,-0.3 -0.2,-0.5 0,-0.2 -0.2,-0.3 -0.5,-0.3 h -0.3 z m 0,-1.2 h 0.2 c 0.3,0 0.5,-0.1 0.5,-0.3 0,-0.2 -0.2,-0.3 -0.5,-0.3 -0.1,0 -0.2,0 -0.3,0 v 0.6 z"
   id="path166"
   style="fill:#ffffff;fill-opacity:1" />
	</g>
</g>
</svg>
